<svg width="30" height="42" viewBox="0 0 30 42" fill="none" xmlns="http://www.w3.org/2000/svg">
<path d="M15 0C16.705 0 18.3401 0.698682 19.5457 1.94234C20.7513 3.18601 21.4286 4.87277 21.4286 6.63158V19.8947C21.4286 21.6535 20.7513 23.3403 19.5457 24.584C18.3401 25.8276 16.705 26.5263 15 26.5263C13.295 26.5263 11.6599 25.8276 10.4543 24.584C9.24872 23.3403 8.57143 21.6535 8.57143 19.8947V6.63158C8.57143 4.87277 9.24872 3.18601 10.4543 1.94234C11.6599 0.698682 13.295 0 15 0ZM30 19.8947C30 27.6979 24.4071 34.1305 17.1429 35.2137V42H12.8571V35.2137C5.59286 34.1305 0 27.6979 0 19.8947H4.28571C4.28571 22.8261 5.41454 25.6374 7.42386 27.7101C9.43317 29.7829 12.1584 30.9474 15 30.9474C17.8416 30.9474 20.5668 29.7829 22.5761 27.7101C24.5855 25.6374 25.7143 22.8261 25.7143 19.8947H30Z" var:color.fill="white"/>
</svg>
