<svg id="svg" version="1.1" xmlns="http://www.w3.org/2000/svg" xmlns:xlink="http://www.w3.org/1999/xlink" width="400" height="400" viewBox="0, 0, 400,400"><g id="svgg"><path id="path0" d="M159.600 59.600 L 159.600 79.600 139.600 79.600 L 119.600 79.600 119.600 99.600 L 119.600 119.600 99.600 119.600 L 79.600 119.600 79.600 159.600 L 79.600 199.600 60.000 199.600 L 40.400 199.600 40.400 179.600 L 40.400 159.600 20.200 159.600 L 0.000 159.600 0.000 200.062 L 0.000 240.525 79.999 240.300 L 159.998 240.075 159.733 300.238 L 159.468 360.400 179.934 360.400 L 200.400 360.400 200.400 340.400 L 200.400 320.400 220.000 320.400 L 239.600 320.400 239.600 340.400 L 239.600 360.400 260.000 360.400 L 280.400 360.400 280.400 340.400 L 280.400 320.400 320.000 320.400 L 359.600 320.400 359.600 340.400 L 359.600 360.400 379.800 360.400 L 400.000 360.400 400.000 280.000 L 400.000 199.600 380.200 199.600 L 360.400 199.600 360.400 179.600 L 360.400 159.600 340.400 159.600 L 320.400 159.600 320.400 139.600 L 320.400 119.600 300.400 119.600 L 280.400 119.600 280.400 99.600 L 280.400 79.600 260.400 79.600 L 240.400 79.600 240.400 59.600 L 240.400 39.600 200.000 39.600 L 159.600 39.600 159.600 59.600 M200.000 140.000 L 200.000 160.000 180.000 160.000 L 160.000 160.000 160.000 140.000 L 160.000 120.000 180.000 120.000 L 200.000 120.000 200.000 140.000 M200.000 220.000 L 200.000 240.000 180.000 240.000 L 160.000 240.000 160.000 220.000 L 160.000 200.000 180.000 200.000 L 200.000 200.000 200.000 220.000 " stroke="none" fill="#fc9cbc" fill-rule="evenodd"></path><path id="path1" d="M160.000 219.996 L 160.000 239.993 139.900 240.096 L 119.800 240.200 119.696 260.304 L 119.593 280.407 139.696 280.304 L 159.800 280.200 159.904 260.100 L 160.007 240.000 180.004 240.000 L 200.000 240.000 200.000 220.000 L 200.000 200.000 180.000 200.000 L 160.000 200.000 160.000 219.996 " stroke="none" fill="#fcfcf4" fill-rule="evenodd"></path><path id="path2" d="M160.000 140.000 L 160.000 160.000 180.000 160.000 L 200.000 160.000 200.000 140.000 L 200.000 120.000 180.000 120.000 L 160.000 120.000 160.000 140.000 " stroke="none" fill="#241c14" fill-rule="evenodd"></path><path id="path3" d="" stroke="none" fill="#100ac68" fill-rule="evenodd"></path><path id="path4" d="" stroke="none" fill="#100ac68" fill-rule="evenodd"></path></g></svg>