<svg xmlns="http://www.w3.org/2000/svg" xmlns:xlink="http://www.w3.org/1999/xlink" width="20" height="30.699"><symbol id="icon_check" viewBox="0 0 15 10.698"><path d="M12.9 0 6.4 6.507l-4.3-4.3L0 4.301l4.3 4.3 2.1 2.1 2.1-2.1L15 2.096Z" fill="#4b4b4b"/></symbol><use xlink:href="#icon_check" width="15" height="10.698"/><symbol id="icon_search" viewBox="0 0 20 20.001"><path d="M2.429 2.43a8.29 8.29 0 0 1 12.967 10.137l4.017 4.017a2.001 2.001 0 0 1-2.83 2.831l-4.017-4.017A8.291 8.291 0 0 1 2.429 2.43Zm2.262 9.467a5.092 5.092 0 1 0-1.492-3.6 5.071 5.071 0 0 0 1.492 3.6Z"/></symbol><use xlink:href="#icon_search" y="10.698" width="20" height="20.001"/></svg>