<svg xmlns="http://www.w3.org/2000/svg" xmlns:xlink="http://www.w3.org/1999/xlink" width="30" height="42"><symbol fill="none" id="mic" viewBox="0 0 30 42"><path d="M15 0a6.33 6.33 0 0 1 4.546 1.942 6.74 6.74 0 0 1 1.883 4.69v13.263a6.74 6.74 0 0 1-1.883 4.689A6.33 6.33 0 0 1 15 26.526a6.33 6.33 0 0 1-4.546-1.942 6.74 6.74 0 0 1-1.883-4.69V6.633a6.74 6.74 0 0 1 1.883-4.69A6.33 6.33 0 0 1 15 0Zm15 19.895c0 7.803-5.593 14.235-12.857 15.319V42h-4.286v-6.786C5.593 34.13 0 27.698 0 19.894h4.286c0 2.932 1.129 5.743 3.138 7.816 2.01 2.073 4.734 3.237 7.576 3.237 2.842 0 5.567-1.164 7.576-3.237 2.01-2.073 3.138-4.884 3.138-7.815H30Z" fill="#fff"/></symbol><use fill="none" xlink:href="#mic" width="30" height="42"/></svg>