<svg xmlns="http://www.w3.org/2000/svg" xmlns:xlink="http://www.w3.org/1999/xlink" width="24.31" height="36.127"><symbol id="arrow" viewBox="0 0 6.364 11.364"><g data-name="グループ 16"><g data-name="グループ 12" fill="#111"><path data-name="パス 64" d="m378.707 219 5.657 5.657-.707.707-5.657-5.657Z" transform="translate(-378 -219)"/><path data-name="パス 63" d="m378 229.657 5.657-5.657.707.707-5.657 5.657Z" transform="translate(-378 -219)"/></g></g></symbol><use xlink:href="#arrow" width="6.364" height="11.364"/><symbol id="cart" viewBox="0 0 24.31 24.763"><g data-name="グループ 16" fill="#fff"><path data-name="パス 51" d="M28.994 6.129 11.149 4.716l-.271-1.541A3.32 3.32 0 0 0 8.1.469L4.925 0l-.241 1.631 3.17.47a1.668 1.668 0 0 1 1.4 1.361l2.561 14.515a2.85 2.85 0 0 0 2.807 2.355h11.11l.33-1.649H14.621a1.2 1.2 0 0 1-1.183-.993l-.359-2.031H26.8Z" transform="translate(-4.684)"/><path data-name="パス 52" d="M15.25 21.216a1.774 1.774 0 1 0 1.774 1.774 1.774 1.774 0 0 0-1.774-1.774Z" transform="translate(-4.684)"/><path data-name="パス 53" d="M23.13 21.216a1.774 1.774 0 1 0 1.774 1.774 1.774 1.774 0 0 0-1.774-1.774Z" transform="translate(-4.684)"/></g></symbol><use xlink:href="#cart" y="11.364" width="24.31" height="24.763"/></svg>