<svg xmlns="http://www.w3.org/2000/svg" width="143.164" height="143.262"><path data-name="パス 23" d="M143.164 71.972a1.291 1.291 0 0 1-.391.83 1.083 1.083 0 0 1-.781.439l-55.859 4.395 36.425 42.579a.619.619 0 0 1 .146.293 3.235 3.235 0 0 1 .049.684 1.965 1.965 0 0 1-.049.537.613.613 0 0 1-.146.244l-.586.684a.613.613 0 0 1-.244.146 1.965 1.965 0 0 1-.537.049 3.235 3.235 0 0 1-.684-.049.619.619 0 0 1-.293-.146L77.539 86.23l-4.395 55.762a1.3 1.3 0 0 1-.342.879 1.064 1.064 0 0 1-.83.391h-.781a1.13 1.13 0 0 1-.83-.342 1.254 1.254 0 0 1-.342-.928L65.625 86.23l-42.676 36.426a1.583 1.583 0 0 1-.439.244 1.482 1.482 0 0 1-.537.146 1.179 1.179 0 0 1-.395-.146 1.643 1.643 0 0 1-.391-.244l-.586-.684a.618.618 0 0 1-.293-.342 1.2 1.2 0 0 1-.1-.439 1.434 1.434 0 0 1 .1-.537 1.3 1.3 0 0 1 .293-.439l36.332-42.579-55.761-4.394a1.13 1.13 0 0 1-.83-.342A1.254 1.254 0 0 1 0 71.972v-.781a1.193 1.193 0 0 1 .342-.781 1.064 1.064 0 0 1 .83-.391l55.761-4.399-36.328-42.573a.619.619 0 0 1-.146-.293 3.946 3.946 0 0 1-.049-.781 1.965 1.965 0 0 1 .049-.537.613.613 0 0 1 .146-.244l.586-.586a.613.613 0 0 1 .244-.146 1.965 1.965 0 0 1 .537-.049 3.235 3.235 0 0 1 .684.049.619.619 0 0 1 .293.146l42.676 36.425L70.02 1.172a1.125 1.125 0 0 1 .391-.781A1.125 1.125 0 0 1 71.192 0h.781a1.125 1.125 0 0 1 .781.391 1.125 1.125 0 0 1 .391.781l4.395 55.859 42.676-36.426a.619.619 0 0 1 .293-.146 3.235 3.235 0 0 1 .684-.049 1.965 1.965 0 0 1 .537.049.613.613 0 0 1 .244.146l.586.586a.613.613 0 0 1 .146.244 1.965 1.965 0 0 1 .049.537 3.946 3.946 0 0 1-.049.781.619.619 0 0 1-.146.293L86.133 65.62l55.859 4.4a1.083 1.083 0 0 1 .781.439 1.242 1.242 0 0 1 .391.732Z" fill="#4d6ced"/></svg>