<svg width="280" height="66" viewBox="0 0 280 66" fill="none" xmlns="http://www.w3.org/2000/svg">
<path fill-rule="evenodd" clip-rule="evenodd" d="M280 0H0V66H280V0ZM22.2485 37.4644V36.7173H15.8545V37.4644C15.8545 41.2729 16.5723 44.2832 18.0078 46.4951C19.4434 48.6924 22.2632 49.791 26.4673 49.791C30.6714 49.791 33.5791 48.4287 35.1904 45.7041C36.1426 44.0928 36.6187 41.9102 36.6187 39.1562V16.6123H29.8511V39.2661C29.8511 40.8335 29.6973 41.9468 29.3896 42.606C28.877 43.7192 27.8223 44.2759 26.2256 44.2759C24.6143 44.2759 23.5596 43.7705 23.0615 42.7598C22.5781 41.7344 22.3071 39.9692 22.2485 37.4644ZM50.1538 22.3472H67.2925V16.6123H43.54V49H68.0835V43.1772H50.1538V34.8496H65.8862V29.2246H50.1538V22.3472ZM80.1245 16.6123H73.3569V49H96.1646V43.1772H80.1245V16.6123ZM107.634 16.6123H100.867V49H123.674V43.1772H107.634V16.6123ZM150.393 16.6123H142.725L136.287 30.7188L129.563 16.6123H121.587L132.793 36.8271V49H139.561V36.8271L150.393 16.6123ZM188.955 16.6562H165.994V49H172.717V35.4209H186.934V29.7959H172.717V22.3472H188.955V16.6562ZM192.976 49H199.7V16.6123H192.976V49ZM212.136 42.3203C211.536 41.5879 211.133 40.4819 210.928 39.0024H204.468C204.468 42.3716 205.676 45.0229 208.093 46.9565C210.51 48.8755 213.828 49.835 218.047 49.835C222.178 49.835 225.371 48.8608 227.627 46.9126C229.897 44.9497 231.033 42.4888 231.033 39.5298C231.033 36.644 230.066 34.4395 228.132 32.916C226.887 31.9346 225.042 31.1509 222.595 30.5649L217.014 29.2246C214.861 28.7119 213.455 28.2651 212.795 27.8843C211.77 27.313 211.257 26.4487 211.257 25.2915C211.257 24.0317 211.777 23.0503 212.817 22.3472C213.857 21.644 215.249 21.2925 216.992 21.2925C218.56 21.2925 219.871 21.5635 220.925 22.1055C222.507 22.9258 223.357 24.3101 223.474 26.2583H229.978C229.861 22.8159 228.594 20.1938 226.177 18.3921C223.774 16.5757 220.867 15.6675 217.454 15.6675C213.367 15.6675 210.269 16.627 208.159 18.5459C206.05 20.4648 204.995 22.8745 204.995 25.7749C204.995 28.9536 206.086 31.29 208.269 32.7842C209.558 33.6777 211.887 34.5054 215.256 35.2671L218.684 36.0361C220.691 36.4756 222.163 36.981 223.101 37.5522C224.038 38.1382 224.507 38.9658 224.507 40.0352C224.507 41.8662 223.562 43.1187 221.672 43.7925C220.676 44.144 219.38 44.3198 217.783 44.3198C215.117 44.3198 213.235 43.6533 212.136 42.3203ZM235.999 16.6123V49H242.7V34.542H255.356V49H262.08V16.6123H255.356V28.9609H242.7V16.6123H235.999Z" fill="black"/>
</svg>
