<svg xmlns="http://www.w3.org/2000/svg" width="532.211" height="200"><text transform="translate(0 143)" fill="#ebff00" font-size="90" font-family="Calibri-BoldItalic, Calibri" font-weight="700" font-style="italic" letter-spacing=".015em">
            <tspan x="0" y="0">Daily UI</tspan>
        </text><path d="M149.6 81.328a22.336 22.336 0 0 1 2.722.136 6.736 6.736 0 0 1 1.735.409 1.868 1.868 0 0 1 1 .83 1.691 1.691 0 0 1 .131 1.113L143.671 141.6a1.977 1.977 0 0 1-.554 1.025 2.955 2.955 0 0 1-1.184.67 8.768 8.768 0 0 1-1.866.353 28.05 28.05 0 0 1-2.73.112 27.216 27.216 0 0 1-2.756-.113 7 7 0 0 1-1.731-.36 1.925 1.925 0 0 1-1.018-.759 1.536 1.536 0 0 1-.171-1.124l11.557-57.784a2.189 2.189 0 0 1 .51-1.022 2.779 2.779 0 0 1 1.224-.737 9.453 9.453 0 0 1 1.882-.4 23.491 23.491 0 0 1 2.766-.133Zm-12.264 61.436a27.31 27.31 0 0 0 2.631-.107 7.939 7.939 0 0 0 1.649-.306 2.042 2.042 0 0 0 .793-.429.981.981 0 0 0 .281-.514L154.2 83.62a.708.708 0 0 0-.045-.47c-.035-.07-.145-.209-.495-.356a5.9 5.9 0 0 0-1.473-.338 21.382 21.382 0 0 0-2.6-.128 22.52 22.52 0 0 0-2.642.128 8.479 8.479 0 0 0-1.678.35 1.832 1.832 0 0 0-.8.45 1.185 1.185 0 0 0-.281.56L132.641 141.6a.54.54 0 0 0 .048.414 1 1 0 0 0 .52.34 6.162 6.162 0 0 0 1.477.3 26.263 26.263 0 0 0 2.65.11Zm-11.457-59.942a12.648 12.648 0 0 1 3.138.324 3.836 3.836 0 0 1 2.012 1.172 3.488 3.488 0 0 1 .776 2.094 11.5 11.5 0 0 1-.25 2.806 12.059 12.059 0 0 1-.873 2.864 5.352 5.352 0 0 1-1.552 1.984 5.9 5.9 0 0 1-2.35 1.059 15.326 15.326 0 0 1-3.273.3 13.547 13.547 0 0 1-3.129-.3A3.793 3.793 0 0 1 118.361 94a3.521 3.521 0 0 1-.8-2.091 10.256 10.256 0 0 1 .272-2.885 11.677 11.677 0 0 1 .874-2.8 5.6 5.6 0 0 1 1.545-1.976 5.954 5.954 0 0 1 2.348-1.106 14.3 14.3 0 0 1 3.279-.32Zm-2.373 11.6a14.353 14.353 0 0 0 3.055-.274 4.916 4.916 0 0 0 1.956-.874 4.363 4.363 0 0 0 1.26-1.619 11.08 11.08 0 0 0 .8-2.627 10.539 10.539 0 0 0 .234-2.558 2.482 2.482 0 0 0-.542-1.509 2.87 2.87 0 0 0-1.5-.85 11.686 11.686 0 0 0-2.883-.291 13.327 13.327 0 0 0-3.047.294 4.966 4.966 0 0 0-1.958.915 4.609 4.609 0 0 0-1.268 1.628 10.7 10.7 0 0 0-.795 2.56v.01a9.3 9.3 0 0 0-.254 2.6 2.551 2.551 0 0 0 .56 1.512 2.829 2.829 0 0 0 1.5.81 12.584 12.584 0 0 0 2.882.275Zm114.956-9.053a24.541 24.541 0 0 1 2.828.135 8.623 8.623 0 0 1 1.822.377 1.887 1.887 0 0 1 1.081.8 1.608 1.608 0 0 1 .164 1.134l-6.768 33.75a17.732 17.732 0 0 0-.39 5.684 8.174 8.174 0 0 0 1.381 3.833 6.386 6.386 0 0 0 2.919 2.2 12.672 12.672 0 0 0 4.565.735 14.925 14.925 0 0 0 5.039-.828 12.31 12.31 0 0 0 4.076-2.407 14.482 14.482 0 0 0 3.036-3.888 18.745 18.745 0 0 0 1.86-5.265l6.811-34.012a2.1 2.1 0 0 1 .543-1.035 2.807 2.807 0 0 1 1.222-.705 10.2 10.2 0 0 1 1.92-.372 25.745 25.745 0 0 1 2.87-.135 23.37 23.37 0 0 1 2.787.136 8.547 8.547 0 0 1 1.776.377 1.887 1.887 0 0 1 1.081.8 1.608 1.608 0 0 1 .164 1.134l-6.855 34.321a32.8 32.8 0 0 1-3.483 9.707 24.11 24.11 0 0 1-5.924 7.022 24.532 24.532 0 0 1-8.141 4.233 34.431 34.431 0 0 1-10.1 1.406 31.369 31.369 0 0 1-10.117-1.451 15.32 15.32 0 0 1-6.786-4.388 14.667 14.667 0 0 1-3.234-7.3 27.792 27.792 0 0 1 .443-10l6.767-33.748a2.1 2.1 0 0 1 .543-1.035 2.817 2.817 0 0 1 1.274-.708 11.465 11.465 0 0 1 1.932-.37 25.622 25.622 0 0 1 2.893-.135Zm7.6 49.647a13.654 13.654 0 0 1-4.927-.8 7.37 7.37 0 0 1-3.365-2.545 9.153 9.153 0 0 1-1.564-4.3 18.7 18.7 0 0 1 .4-6.008l6.767-33.747a.62.62 0 0 0-.055-.448c-.04-.07-.163-.209-.545-.346a7.81 7.81 0 0 0-1.605-.326 23.576 23.576 0 0 0-2.709-.128 24.653 24.653 0 0 0-2.776.128 10.492 10.492 0 0 0-1.759.334 1.869 1.869 0 0 0-.835.435 1.1 1.1 0 0 0-.292.547l-6.768 33.75a26.816 26.816 0 0 0-.436 9.642 13.685 13.685 0 0 0 3.007 6.812 14.339 14.339 0 0 0 6.355 4.094 30.388 30.388 0 0 0 9.791 1.4 33.437 33.437 0 0 0 9.807-1.362 23.538 23.538 0 0 0 7.811-4.066 23.116 23.116 0 0 0 5.678-6.733 31.806 31.806 0 0 0 3.373-9.41l6.855-34.32a.621.621 0 0 0-.055-.448c-.04-.07-.163-.209-.545-.346a7.719 7.719 0 0 0-1.57-.325 22.406 22.406 0 0 0-2.663-.128 24.772 24.772 0 0 0-2.755.129 9.4 9.4 0 0 0-1.728.331 1.893 1.893 0 0 0-.8.437 1.1 1.1 0 0 0-.292.547l-6.812 34.014a19.744 19.744 0 0 1-1.963 5.547 15.478 15.478 0 0 1-3.248 4.154 13.3 13.3 0 0 1-4.405 2.6 15.921 15.921 0 0 1-5.37.888Zm52.59-49.647c1.125 0 2.066.038 2.8.112a8.292 8.292 0 0 1 1.826.354 1.9 1.9 0 0 1 1.108.8 1.608 1.608 0 0 1 .164 1.134l-10.723 53.791a2.029 2.029 0 0 1-.576 1.047 3 3 0 0 1-1.285.7 10.4 10.4 0 0 1-1.966.344c-.774.074-1.736.112-2.86.112-1.154 0-2.11-.038-2.841-.112a7.88 7.88 0 0 1-1.809-.351 2.011 2.011 0 0 1-1.09-.782 1.424 1.424 0 0 1-.15-1.175L292.007 87.6a1.737 1.737 0 0 1 .569-1.079 3.2 3.2 0 0 1 1.3-.686 10.35 10.35 0 0 1 1.942-.349c.757-.077 1.712-.115 2.836-.115Zm-11.512 57.395c1.092 0 2.022-.036 2.765-.108a9.434 9.434 0 0 0 1.771-.31 2.1 2.1 0 0 0 .868-.446 1.035 1.035 0 0 0 .3-.536l10.723-53.789a.621.621 0 0 0-.055-.448c-.031-.056-.149-.2-.562-.344a7.458 7.458 0 0 0-1.6-.3c-.7-.071-1.6-.107-2.7-.107s-2.014.036-2.742.107a9.385 9.385 0 0 0-1.749.31 2.291 2.291 0 0 0-.9.457.755.755 0 0 0-.263.477l-.007.048-10.775 53.831a.427.427 0 0 0 .033.382 1.149 1.149 0 0 0 .579.365 7.048 7.048 0 0 0 1.574.3c.7.075 1.62.111 2.74.111ZM17.095 85.635h13.711a41.975 41.975 0 0 1 11.455 1.338 20.894 20.894 0 0 1 7.787 4.01 16.561 16.561 0 0 1 4.712 6.636 24.756 24.756 0 0 1 1.551 9.081 51 51 0 0 1-.333 5.637 45.827 45.827 0 0 1-1.111 6.063 40.718 40.718 0 0 1-2.091 6.14 32.553 32.553 0 0 1-3.276 5.85 30.7 30.7 0 0 1-4.668 5.2 28.474 28.474 0 0 1-6.24 4.183 34.52 34.52 0 0 1-7.942 2.748 49.121 49.121 0 0 1-10.479.979H5.713a5.541 5.541 0 0 1-1.473-.194 2.841 2.841 0 0 1-1.276-.722 2.708 2.708 0 0 1-.706-1.367 4.732 4.732 0 0 1 .065-1.967l9.93-49.564a4.679 4.679 0 0 1 1.736-3.1 5.185 5.185 0 0 1 3.106-.951Zm3.076 56.865a48.141 48.141 0 0 0 10.263-.955 33.522 33.522 0 0 0 7.707-2.662 27.472 27.472 0 0 0 6.021-4.035 29.7 29.7 0 0 0 4.516-5.034 31.545 31.545 0 0 0 3.18-5.667 39.719 39.719 0 0 0 2.04-5.989 44.832 44.832 0 0 0 1.087-5.932 50.005 50.005 0 0 0 .326-5.525 23.768 23.768 0 0 0-1.481-8.715 15.572 15.572 0 0 0-4.429-6.24 19.906 19.906 0 0 0-7.418-3.812 41 41 0 0 0-11.177-1.3H17.095a4.151 4.151 0 0 0-2.52.762 3.732 3.732 0 0 0-1.339 2.475v.009L3.3 139.451A3.848 3.848 0 0 0 3.235 141a1.732 1.732 0 0 0 .436.874 1.83 1.83 0 0 0 .834.465 4.541 4.541 0 0 0 1.208.161Zm2.623-47.812h6.43a21.3 21.3 0 0 1 7.183 1 11.929 11.929 0 0 1 4.469 2.8 10.658 10.658 0 0 1 2.536 4.286 17.618 17.618 0 0 1 .77 5.292 36.988 36.988 0 0 1-.49 5.881 30.857 30.857 0 0 1-1.586 5.941 28.1 28.1 0 0 1-2.819 5.526 20.616 20.616 0 0 1-4.187 4.636 19.073 19.073 0 0 1-5.685 3.16 23.877 23.877 0 0 1-7.924 1.15h-6.677Zm-1.3 38.672a22.9 22.9 0 0 0 7.588-1.092 18.076 18.076 0 0 0 5.389-2.993 19.618 19.618 0 0 0 3.986-4.414 27.093 27.093 0 0 0 2.718-5.329 29.848 29.848 0 0 0 1.525-5.748 35.985 35.985 0 0 0 .477-5.721 16.621 16.621 0 0 0-.724-4.991 9.668 9.668 0 0 0-2.3-3.888 10.942 10.942 0 0 0-4.1-2.561 20.345 20.345 0 0 0-6.836-.936h-5.604l-7.578 37.672ZM82.385 99.3a13.955 13.955 0 0 1 6.7 1.576 14.9 14.9 0 0 1 4.411 3.687l.486-2.4a2.262 2.262 0 0 1 1.719-1.7 13.984 13.984 0 0 1 4.045-.42 18.8 18.8 0 0 1 2.259.114 6.377 6.377 0 0 1 1.5.338 1.721 1.721 0 0 1 .94.758 1.614 1.614 0 0 1 .137 1.1l-7.864 39.295A2.26 2.26 0 0 1 95 143.343a13.984 13.984 0 0 1-4.045.42c-.921 0-1.685-.03-2.27-.09a6.115 6.115 0 0 1-1.51-.315 1.615 1.615 0 0 1-.959-.784 1.826 1.826 0 0 1-.1-1.114v-.007l.731-3.753q-.349.43-.756.868a18.423 18.423 0 0 1-3.523 2.914 21.076 21.076 0 0 1-4.479 2.166 15.481 15.481 0 0 1-5.108.863 12.971 12.971 0 0 1-6.081-1.289 10.653 10.653 0 0 1-3.916-3.481 14.328 14.328 0 0 1-2.071-4.941 26.59 26.59 0 0 1-.605-5.733 38.872 38.872 0 0 1 .534-6.122 41.165 41.165 0 0 1 1.646-6.606 36.438 36.438 0 0 1 2.852-6.35 24.488 24.488 0 0 1 4.195-5.45 19.416 19.416 0 0 1 5.638-3.811 17.581 17.581 0 0 1 7.212-1.428Zm11.646 7.646-.669-.92a14.325 14.325 0 0 0-4.755-4.27 12.969 12.969 0 0 0-6.222-1.456 16.591 16.591 0 0 0-6.805 1.341 18.42 18.42 0 0 0-5.349 3.615 23.489 23.489 0 0 0-4.023 5.228 35.439 35.439 0 0 0-2.773 6.175 40.156 40.156 0 0 0-1.606 6.445 37.868 37.868 0 0 0-.521 5.963 25.59 25.59 0 0 0 .581 5.517 13.333 13.333 0 0 0 1.926 4.6 9.663 9.663 0 0 0 3.555 3.154 12 12 0 0 0 5.611 1.173 14.484 14.484 0 0 0 4.779-.811 20.08 20.08 0 0 0 4.266-2.058 17.426 17.426 0 0 0 3.332-2.755 11.485 11.485 0 0 0 2.023-2.838l.943.308-1.224 6.287a.864.864 0 0 0 .028.508.74.74 0 0 0 .4.271 5.241 5.241 0 0 0 1.26.256c.552.057 1.281.085 2.168.085a13.339 13.339 0 0 0 3.734-.371c.928-.3 1.019-.78 1.049-.937l7.861-39.291a.637.637 0 0 0-.039-.436.8.8 0 0 0-.422-.3 5.519 5.519 0 0 0-1.264-.277 17.818 17.818 0 0 0-2.135-.106 13.339 13.339 0 0 0-3.734.371c-.928.3-1.019.78-1.049.937v.006Zm28.332-6.9a22.339 22.339 0 0 1 2.722.136 7.105 7.105 0 0 1 1.751.406 1.891 1.891 0 0 1 1.022.8 1.613 1.613 0 0 1 .137 1.1l-7.778 39.112a1.977 1.977 0 0 1-.554 1.025 2.954 2.954 0 0 1-1.211.675 9.21 9.21 0 0 1-1.883.351 28.05 28.05 0 0 1-2.73.112 26.664 26.664 0 0 1-2.712-.113 7.379 7.379 0 0 1-1.747-.358 1.8 1.8 0 0 1-1.037-.783 1.614 1.614 0 0 1-.137-1.1l7.778-39.109a1.977 1.977 0 0 1 .554-1.025 3.146 3.146 0 0 1 1.2-.689 8.973 8.973 0 0 1 1.864-.4 23.493 23.493 0 0 1 2.761-.137Zm-8.525 42.718a27.31 27.31 0 0 0 2.631-.107 8.384 8.384 0 0 0 1.676-.308 2.078 2.078 0 0 0 .811-.427.981.981 0 0 0 .281-.514l7.777-39.108a.638.638 0 0 0-.039-.436c-.027-.051-.132-.187-.516-.344a6.262 6.262 0 0 0-1.5-.341 21.38 21.38 0 0 0-2.6-.128 22.516 22.516 0 0 0-2.642.128 8.006 8.006 0 0 0-1.651.348 2.242 2.242 0 0 0-.824.454.98.98 0 0 0-.281.514l-7.775 39.105a.638.638 0 0 0 .039.436c.02.038.116.173.5.316a6.537 6.537 0 0 0 1.505.3 25.7 25.7 0 0 0 2.608.112Zm50.644-42.715c1.206 0 2.171.023 2.866.067a5.515 5.515 0 0 1 1.721.323 1.783 1.783 0 0 1 .989.916 4.484 4.484 0 0 1 .325 1.235l3.867 26.27a78.253 78.253 0 0 0 3.326-5.651c1.189-2.233 2.292-4.534 3.277-6.839s1.907-4.678 2.734-7.044 1.6-4.779 2.293-7.184a2.052 2.052 0 0 1 .516-.991 2.631 2.631 0 0 1 1.267-.669 12.121 12.121 0 0 1 2-.323c.8-.074 1.853-.112 3.122-.112a14.378 14.378 0 0 1 4.025.377 1.773 1.773 0 0 1 1.4 1.749 7.5 7.5 0 0 1-.14 1.367 10.321 10.321 0 0 1-.415 1.524v.007c-.993 2.686-2.081 5.5-3.235 8.363s-2.5 5.867-3.992 8.91-3.213 6.233-5.115 9.481-4.113 6.662-6.571 10.143l-10.723 15.2a3.887 3.887 0 0 1-1.131 1.08 5.983 5.983 0 0 1-1.631.675 14.7 14.7 0 0 1-2.253.388 29.6 29.6 0 0 1-3 .134 24.879 24.879 0 0 1-3.12-.158 4.549 4.549 0 0 1-1.9-.585 1.408 1.408 0 0 1-.7-1.336 3.059 3.059 0 0 1 .716-1.537l9.831-12.959-6.425-37.5a120.82 120.82 0 0 1-.177-1.192 8.154 8.154 0 0 1-.093-1.125 2.983 2.983 0 0 1 .355-1.529 2.33 2.33 0 0 1 1.217-.959 7.471 7.471 0 0 1 1.956-.4 28.933 28.933 0 0 1 2.818-.116Zm9.8 30.575h-.782l-4.107-27.9a3.51 3.51 0 0 0-.246-.96.809.809 0 0 0-.461-.4 4.68 4.68 0 0 0-1.4-.248 46.841 46.841 0 0 0-2.8-.065 29 29 0 0 0-2.721.108 6.624 6.624 0 0 0-1.691.342 1.368 1.368 0 0 0-.717.535 2.023 2.023 0 0 0-.216 1.02 7.178 7.178 0 0 0 .083.984c.058.408.117.8.175 1.179l6.491 37.91-10.106 13.313a2.129 2.129 0 0 0-.515 1.014c-.006.076-.019.233.262.421a3.593 3.593 0 0 0 1.48.426 23.928 23.928 0 0 0 2.989.15 28.611 28.611 0 0 0 2.893-.129 13.719 13.719 0 0 0 2.1-.359 5 5 0 0 0 1.357-.555 2.9 2.9 0 0 0 .844-.806l10.722-15.211c2.441-3.459 4.637-6.847 6.525-10.072s3.6-6.394 5.08-9.416 2.815-6 3.962-8.844 2.234-5.656 3.223-8.332a9.328 9.328 0 0 0 .374-1.373 6.513 6.513 0 0 0 .123-1.182c0-.278-.085-.591-.713-.8a13.862 13.862 0 0 0-3.709-.326c-1.239 0-2.258.036-3.03.108a11.159 11.159 0 0 0-1.826.292 1.693 1.693 0 0 0-.8.386 1.053 1.053 0 0 0-.271.526l-.01.041c-.7 2.429-1.481 4.869-2.315 7.255s-1.763 4.778-2.759 7.107-2.112 4.658-3.314 6.916-2.556 4.521-4.022 6.721Zm-91.238-21.918a8.316 8.316 0 0 1 4.6 1.289 12.216 12.216 0 0 1 3.556 3.777l.109.171-1.272 6.131a23.129 23.129 0 0 1-2 5.814 22.631 22.631 0 0 1-3.169 4.763 15.657 15.657 0 0 1-3.905 3.267 8.425 8.425 0 0 1-4.2 1.231 4.669 4.669 0 0 1-2.506-.625 4.623 4.623 0 0 1-1.575-1.648 6.829 6.829 0 0 1-.784-2.275 15.8 15.8 0 0 1-.2-2.587 30.407 30.407 0 0 1 .29-4 30.621 30.621 0 0 1 .894-4.289 27.581 27.581 0 0 1 1.522-4.1 17.085 17.085 0 0 1 2.151-3.508 10.164 10.164 0 0 1 2.866-2.471 7.225 7.225 0 0 1 3.623-.94Zm7.2 5.433a11.069 11.069 0 0 0-3.146-3.3 7.334 7.334 0 0 0-4.057-1.128 6.237 6.237 0 0 0-3.136.813 9.168 9.168 0 0 0-2.583 2.231 16.086 16.086 0 0 0-2.023 3.3A26.572 26.572 0 0 0 73.835 120a29.607 29.607 0 0 0-.864 4.149 29.4 29.4 0 0 0-.281 3.867 14.8 14.8 0 0 0 .191 2.423 5.836 5.836 0 0 0 .666 1.944 3.633 3.633 0 0 0 1.237 1.3 3.7 3.7 0 0 0 1.976.473 7.445 7.445 0 0 0 3.706-1.1 14.665 14.665 0 0 0 3.653-3.061 21.636 21.636 0 0 0 3.027-4.553 22.137 22.137 0 0 0 1.912-5.565Z" fill="#111"/><text transform="translate(325 150)" fill="#ebff00" font-size="200" font-family="Calibri-BoldItalic, Calibri" font-weight="700" font-style="italic" letter-spacing=".015em">
            <tspan x="0" y="0">10</tspan>
        </text><path d="M471.262 152.746a46.553 46.553 0 0 1-16.734-2.671 28.309 28.309 0 0 1-11.28-7.706 30.828 30.828 0 0 1-6.355-12.257 61.826 61.826 0 0 1-1.971-16.245c0-3.19.2-7 .588-11.324s1.033-8.971 1.91-13.814 2-9.864 3.329-14.931a126.027 126.027 0 0 1 4.9-14.854 107.116 107.116 0 0 1 6.574-13.589 53.563 53.563 0 0 1 8.429-11.139 47.4 47.4 0 0 1 6.613-5.478 40.008 40.008 0 0 1 8.06-4.253 51.239 51.239 0 0 1 9.517-2.663 61.674 61.674 0 0 1 11.027-.936A46.776 46.776 0 0 1 513 23.656a28.007 28.007 0 0 1 11.282 7.857 30.487 30.487 0 0 1 6.108 12.21 64.022 64.022 0 0 1 1.822 15.847c0 3.32-.2 7.2-.588 11.52s-1.033 8.988-1.91 13.862-2 9.913-3.329 14.98a132.093 132.093 0 0 1-4.852 14.851 99.014 99.014 0 0 1-6.576 13.594 54.391 54.391 0 0 1-8.379 11.039 47.067 47.067 0 0 1-14.71 9.677c-5.7 2.424-12.633 3.653-20.606 3.653Zm24.609-130.859a60.677 60.677 0 0 0-10.848.92 50.242 50.242 0 0 0-9.331 2.61 39.008 39.008 0 0 0-7.858 4.146 46.406 46.406 0 0 0-6.473 5.362 52.566 52.566 0 0 0-8.27 10.931 106.114 106.114 0 0 0-6.512 13.462 125.022 125.022 0 0 0-4.863 14.736c-1.325 5.042-2.439 10.04-3.312 14.855s-1.511 9.431-1.9 13.725-.584 8.074-.584 11.234a60.833 60.833 0 0 0 1.935 15.981A29.839 29.839 0 0 0 444 141.713a27.321 27.321 0 0 0 10.89 7.43 45.574 45.574 0 0 0 16.372 2.6c7.838 0 14.639-1.2 20.214-3.573a46.068 46.068 0 0 0 14.4-9.467 53.388 53.388 0 0 0 8.22-10.833 98.014 98.014 0 0 0 6.51-13.457 131.1 131.1 0 0 0 4.815-14.739c1.325-5.042 2.439-10.056 3.312-14.9s1.511-9.48 1.9-13.775.584-8.14.584-11.43a63.029 63.029 0 0 0-1.791-15.6 29.5 29.5 0 0 0-5.9-11.814 27.02 27.02 0 0 0-10.886-7.572 45.8 45.8 0 0 0-16.769-2.696ZM404.3 150.5h-69.827a2.665 2.665 0 0 1-2.373-1.306 6.487 6.487 0 0 1-.764-3.494c0-.477.049-1.181.149-2.151s.265-2.022.5-3.172.529-2.361.889-3.605a20.224 20.224 0 0 1 1.3-3.4 9.832 9.832 0 0 1 1.8-2.571 3.584 3.584 0 0 1 2.6-1.123H361.6l15.931-79.752-21.759 10.784a15.9 15.9 0 0 1-3.333 1.158 5.633 5.633 0 0 1-1.051.111 2.718 2.718 0 0 1-1.221-.252 2.308 2.308 0 0 1-1.186-1.534 9.444 9.444 0 0 1-.262-2.478 37.1 37.1 0 0 1 .247-3.715 30.8 30.8 0 0 1 .943-4.865 23.9 23.9 0 0 1 1.846-4.738 7.386 7.386 0 0 1 2.986-3.234l30.951-17.574a7.91 7.91 0 0 1 1.563-.677 12 12 0 0 1 2.091-.41c.826-.1 1.909-.166 3.221-.2s2.98-.049 4.993-.049c2.473 0 4.489.05 5.99.148a16.274 16.274 0 0 1 3.482.509c.922.281 1.461.689 1.647 1.248a3.967 3.967 0 0 1 .12 1.678l-.007.043-20.683 103.797H408.3a2.49 2.49 0 0 1 2.29 1.277 6.754 6.754 0 0 1 .652 3.324c0 .477-.049 1.2-.149 2.2-.1.987-.265 2.1-.495 3.315s-.512 2.425-.84 3.605a21.733 21.733 0 0 1-1.25 3.4 8.706 8.706 0 0 1-1.816 2.638 3.454 3.454 0 0 1-2.392 1.065Zm-65.726-19.824a2.584 2.584 0 0 0-1.893.83 8.841 8.841 0 0 0-1.615 2.311 19.227 19.227 0 0 0-1.236 3.236c-.353 1.218-.645 2.4-.869 3.523s-.386 2.155-.481 3.079-.144 1.612-.144 2.045a5.658 5.658 0 0 0 .605 2.954 1.678 1.678 0 0 0 1.532.846H404.3a2.462 2.462 0 0 0 1.7-.79 7.722 7.722 0 0 0 1.6-2.34 20.735 20.735 0 0 0 1.2-3.242c.32-1.153.6-2.339.821-3.524s.386-2.271.482-3.228.144-1.662.144-2.1a5.933 5.933 0 0 0-.52-2.828 1.485 1.485 0 0 0-1.421-.773h-21.415l20.916-104.97a2.976 2.976 0 0 0-.077-1.231c-.072-.217-.433-.438-.99-.607a15.613 15.613 0 0 0-3.256-.468c-1.479-.1-3.473-.145-5.924-.145-2 0-3.676.016-4.968.049s-2.332.1-3.127.192a11.03 11.03 0 0 0-1.912.371 6.911 6.911 0 0 0-1.366.592l-30.973 17.585a6.412 6.412 0 0 0-2.574 2.817 22.892 22.892 0 0 0-1.768 4.539 29.8 29.8 0 0 0-.913 4.706 36.153 36.153 0 0 0-.241 3.609 8.629 8.629 0 0 0 .226 2.21 1.336 1.336 0 0 0 .67.907 2.727 2.727 0 0 0 1.635.054 14.934 14.934 0 0 0 3.1-1.084l23.56-11.678-16.487 82.553Zm136.2 1.66c-5.027 0-8.726-1.546-11-4.6a15.823 15.823 0 0 1-2.539-5.823 36.172 36.172 0 0 1-.831-8.245c0-1.961.182-4.722.54-8.205s.884-7.4 1.566-11.649 1.521-8.746 2.495-13.354a136.253 136.253 0 0 1 3.529-13.379 91.778 91.778 0 0 1 4.615-11.734 32.5 32.5 0 0 1 5.658-8.529l.012-.012a21.429 21.429 0 0 1 6-4.1 18.091 18.091 0 0 1 7.531-1.51 17.234 17.234 0 0 1 6.563 1.136A10.359 10.359 0 0 1 503.4 45.8a15.945 15.945 0 0 1 2.5 5.847 37.281 37.281 0 0 1 .819 8.316c0 2.024-.165 4.816-.49 8.3s-.836 7.4-1.518 11.654-1.538 8.748-2.544 13.358-2.211 9.1-3.577 13.328a95.717 95.717 0 0 1-4.614 11.732 30.626 30.626 0 0 1-5.664 8.488 19.179 19.179 0 0 1-5.965 4.06 18.966 18.966 0 0 1-7.57 1.453Zm4.748-84.814a31.537 31.537 0 0 0-5.469 8.261 90.778 90.778 0 0 0-4.564 11.606 135.253 135.253 0 0 0-3.5 13.281c-.97 4.593-1.807 9.069-2.486 13.306s-1.2 8.135-1.559 11.593-.534 6.176-.534 8.1c0 6.111 1.067 10.643 3.173 13.471a9.552 9.552 0 0 0 4.075 3.133 16.013 16.013 0 0 0 6.119 1.06 17.976 17.976 0 0 0 7.174-1.375 18.183 18.183 0 0 0 5.656-3.85 29.65 29.65 0 0 0 5.469-8.211 94.722 94.722 0 0 0 4.565-11.608c1.356-4.2 2.551-8.649 3.552-13.234s1.855-9.067 2.534-13.3 1.187-8.132 1.51-11.588.486-6.212.486-8.205c0-6.177-1.052-10.743-3.126-13.571a9.373 9.373 0 0 0-4.06-3.129 16.252 16.252 0 0 0-6.181-1.061 17.1 17.1 0 0 0-7.117 1.42 20.431 20.431 0 0 0-5.714 3.901Z" fill="#111"/></svg>