<svg xmlns="http://www.w3.org/2000/svg" width="400" height="400"><g fill-rule="evenodd"><path d="M159.6 59.6v20h-40v40h-40v80H40.4v-40H0v80.925l79.999-.225 79.999-.225-.265 60.163-.265 60.162H200.4v-40h39.2v40h40.8v-40h79.2v40H400V199.6h-39.6v-40h-40v-40h-40v-40h-40v-40h-80.8v20M200 140v20h-40v-40h40v20m0 80v20h-40v-40h40v20" fill="#fc9cbc"/><path d="M160 219.996v19.997l-20.1.103-20.1.104-.104 20.104-.103 20.103 20.103-.103 20.104-.104.104-20.1.103-20.1H200v-40h-40v19.996" fill="#fcfcf4"/><path d="M160 140v20h40v-40h-40v20" fill="#241c14"/></g></svg>