<svg xmlns="http://www.w3.org/2000/svg" width="143.164" height="143.262" viewBox="0 0 143.164 143.262">
  <path id="パス_23" data-name="パス 23" d="M150.586-68.848a1.291,1.291,0,0,1-.391.83,1.083,1.083,0,0,1-.781.439L93.555-63.184,129.98-20.605a.619.619,0,0,1,.146.293,3.235,3.235,0,0,1,.049.684,1.965,1.965,0,0,1-.049.537.613.613,0,0,1-.146.244l-.586.684a.613.613,0,0,1-.244.146,1.965,1.965,0,0,1-.537.049,3.235,3.235,0,0,1-.684-.049.619.619,0,0,1-.293-.146L84.961-54.59,80.566,1.172a1.3,1.3,0,0,1-.342.879,1.064,1.064,0,0,1-.83.391h-.781a1.13,1.13,0,0,1-.83-.342,1.254,1.254,0,0,1-.342-.928L73.047-54.59,30.371-18.164a1.583,1.583,0,0,1-.439.244,1.482,1.482,0,0,1-.537.146A1.179,1.179,0,0,1,29-17.92a1.643,1.643,0,0,1-.391-.244l-.586-.684a.618.618,0,0,1-.293-.342,1.2,1.2,0,0,1-.1-.439,1.434,1.434,0,0,1,.1-.537,1.3,1.3,0,0,1,.293-.439L64.355-63.184,8.594-67.578a1.13,1.13,0,0,1-.83-.342,1.254,1.254,0,0,1-.342-.928v-.781a1.193,1.193,0,0,1,.342-.781,1.064,1.064,0,0,1,.83-.391L64.355-75.2,28.027-117.773a.619.619,0,0,1-.146-.293,3.946,3.946,0,0,1-.049-.781,1.965,1.965,0,0,1,.049-.537.613.613,0,0,1,.146-.244l.586-.586a.613.613,0,0,1,.244-.146,1.965,1.965,0,0,1,.537-.049,3.235,3.235,0,0,1,.684.049.619.619,0,0,1,.293.146L73.047-83.789l4.395-55.859a1.125,1.125,0,0,1,.391-.781,1.125,1.125,0,0,1,.781-.391h.781a1.125,1.125,0,0,1,.781.391,1.125,1.125,0,0,1,.391.781l4.395,55.859,42.676-36.426a.619.619,0,0,1,.293-.146,3.235,3.235,0,0,1,.684-.049,1.965,1.965,0,0,1,.537.049.613.613,0,0,1,.244.146l.586.586a.613.613,0,0,1,.146.244,1.965,1.965,0,0,1,.049.537,3.946,3.946,0,0,1-.049.781.619.619,0,0,1-.146.293L93.555-75.2,149.414-70.8a1.083,1.083,0,0,1,.781.439,1.242,1.242,0,0,1,.391.732Z" transform="translate(-7.422 140.82)" fill="#4d6ced"/>
</svg>
