<svg xmlns="http://www.w3.org/2000/svg" xmlns:xlink="http://www.w3.org/1999/xlink" width="24.31" height="65.06"><symbol id="arrow" viewBox="0 0 11.364 6.364"><g data-name="グループ 13" fill="#5a5a5a"><path data-name="パス 64" d="m378.707 219 5.657 5.657-.707.707-5.657-5.657Z" transform="rotate(90 304.182 -73.818)"/><path data-name="パス 63" d="m378 229.657 5.657-5.657.707.707-5.657 5.657Z" transform="rotate(90 304.182 -73.818)"/></g></symbol><use xlink:href="#arrow" width="11.364" height="6.364"/><symbol id="cart" viewBox="0 0 24.31 24.763"><g fill="#fff"><path data-name="パス 51" d="M28.994 6.129 11.149 4.716l-.271-1.541A3.32 3.32 0 0 0 8.1.469L4.925 0l-.241 1.631 3.17.47a1.668 1.668 0 0 1 1.4 1.361l2.561 14.515a2.85 2.85 0 0 0 2.807 2.355h11.11l.33-1.649H14.621a1.2 1.2 0 0 1-1.183-.993l-.359-2.031H26.8Z" transform="translate(-4.684)"/><path data-name="パス 52" d="M15.25 21.216a1.774 1.774 0 1 0 1.774 1.774 1.774 1.774 0 0 0-1.774-1.774Z" transform="translate(-4.684)"/><path data-name="パス 53" d="M23.13 21.216a1.774 1.774 0 1 0 1.774 1.774 1.774 1.774 0 0 0-1.774-1.774Z" transform="translate(-4.684)"/></g></symbol><use xlink:href="#cart" y="6.364" width="24.31" height="24.763"/><symbol id="close" viewBox="0 0 15.556 15.556"><g data-name="グループ 16" fill="#fff"><path data-name="ハンバーガー 01" d="m384.637 731.222 14.142 14.142-1.414 1.414-14.142-14.142Z" transform="translate(-383.223 -731.222)"/><path data-name="ハンバーガー 02" d="m383.223 745.364 14.142-14.142 1.414 1.414-14.142 14.142Z" transform="translate(-383.223 -731.222)"/></g></symbol><use xlink:href="#close" y="31.127" width="15.556" height="15.556"/><symbol id="favorite" viewBox="0 0 21 18.377"><g data-name="ハートのアイコン素材 1"><path data-name="パス 42" d="M18.513 37.706A5.072 5.072 0 0 0 10 40.1a5.07 5.07 0 1 0-8.514 4.772L10 53.391l8.516-8.515a5.07 5.07 0 0 0-.003-7.17Z" fill="#fff" transform="translate(.502 -35.721)"/><path data-name="パス 42 - アウトライン" d="M5.068 35.721A5.577 5.577 0 0 1 10 38.7a5.571 5.571 0 1 1 8.869 6.533L10 54.1l-8.871-8.87a5.57 5.57 0 0 1 3.939-9.509Zm5.415 4.5h-.972A4.57 4.57 0 0 0 .5 41.291a4.539 4.539 0 0 0 1.338 3.231L10 52.684l8.162-8.161a4.57 4.57 0 1 0-7.676-4.3Z" fill="#5a5a5a" transform="translate(.502 -35.721)"/></g></symbol><use xlink:href="#favorite" y="46.683" width="21" height="18.377"/></svg>