<svg xmlns="http://www.w3.org/2000/svg" width="24.31" height="24.763" viewBox="0 0 24.31 24.763">
  <g id="ショッピングカートのアイコン4" transform="translate(-4.684)">
    <path id="パス_51" data-name="パス 51" d="M28.994,6.129,11.149,4.716l-.271-1.541A3.32,3.32,0,0,0,8.1.469L4.925,0,4.684,1.631l3.17.47a1.668,1.668,0,0,1,1.4,1.361l2.561,14.515a2.85,2.85,0,0,0,2.807,2.355H25.732l.33-1.649H14.621a1.2,1.2,0,0,1-1.183-.993l-.359-2.031H26.8Z" fill="#fff"/>
    <path id="パス_52" data-name="パス 52" d="M188.254,438.658a1.774,1.774,0,1,0,1.774,1.774A1.774,1.774,0,0,0,188.254,438.658Z" transform="translate(-173.004 -417.442)" fill="#fff"/>
    <path id="パス_53" data-name="パス 53" d="M351.175,438.658a1.774,1.774,0,1,0,1.774,1.774A1.774,1.774,0,0,0,351.175,438.658Z" transform="translate(-328.045 -417.442)" fill="#fff"/>
  </g>
</svg>
