<svg xmlns="http://www.w3.org/2000/svg" width="21" height="18.377" viewBox="0 0 21 18.377">
  <g id="ハートのアイコン素材_1" data-name="ハートのアイコン素材 1" transform="translate(0.502 -35.721)">
    <path id="パス_42" data-name="パス 42" d="M18.513,37.706A5.072,5.072,0,0,0,10,40.1a5.07,5.07,0,1,0-8.514,4.772L10,53.391l8.516-8.515A5.07,5.07,0,0,0,18.513,37.706Z" fill="#fff"/>
    <path id="パス_42_-_アウトライン" data-name="パス 42 - アウトライン" d="M5.068,35.721A5.577,5.577,0,0,1,10,38.7a5.571,5.571,0,1,1,8.869,6.533L10,54.1,1.129,45.23a5.57,5.57,0,0,1,3.939-9.509Zm5.415,4.5H9.511A4.57,4.57,0,0,0,.5,41.291a4.539,4.539,0,0,0,1.338,3.231L10,52.684l8.162-8.161a4.57,4.57,0,1,0-7.676-4.3Z" fill="#5a5a5a"/>
  </g>
</svg>
